<svg width="500" height="340" viewBox="0 0 500 340" fill="none" xmlns="http://www.w3.org/2000/svg">
  <defs>
    <linearGradient id="bg" x1="0" y1="0" x2="500" y2="340" gradientUnits="userSpaceOnUse">
      <stop stop-color="#2196f3"/>
      <stop offset="1" stop-color="#0d47a1"/>
    </linearGradient>
    <radialGradient id="glow" cx="0.5" cy="0.5" r="0.6">
      <stop offset="0.1" stop-color="#bbdefb" stop-opacity="0.8"/>
      <stop offset="1" stop-color="#2196f3" stop-opacity="0"/>
    </radialGradient>
  </defs>
  <rect width="500" height="340" rx="36" fill="url(#bg)"/>
  
  <!-- Device (TV/Monitor) -->
  <rect x="80" y="80" width="180" height="110" rx="12" fill="#fff" fill-opacity="0.95"/>
  <rect x="90" y="90" width="160" height="80" rx="8" fill="url(#glow)"/>
  <rect x="80" y="80" width="180" height="110" rx="12" stroke="#1976d2" stroke-width="2"/>
  <!-- Device stand -->
  <rect x="155" y="193" width="30" height="8" rx="3" fill="#1976d2"/>

  <!-- Mobile device -->
  <rect x="300" y="145" width="70" height="110" rx="13" fill="#fff" fill-opacity="0.92"/>
  <rect x="305" y="150" width="60" height="90" rx="8" fill="url(#glow)"/>
  <rect x="300" y="145" width="70" height="110" rx="13" stroke="#1976d2" stroke-width="2"/>
  <circle cx="335" cy="252" r="3" fill="#1976d2"/>

  <!-- Play Icon -->
  <circle cx="170" cy="130" r="27" fill="#2196f3" fill-opacity="0.15"/>
  <polygon points="160,120 186,130 160,140" fill="#1976d2" />

  <!-- People Avatar 1 -->
  <ellipse cx="125" cy="230" rx="22" ry="22" fill="#fff"/>
  <ellipse cx="125" cy="227" rx="10" ry="10" fill="#90caf9"/>
  <ellipse cx="125" cy="245" rx="14" ry="8" fill="#bbdefb"/>
  
  <!-- People Avatar 2 -->
  <ellipse cx="205" cy="240" rx="19" ry="19" fill="#fff"/>
  <ellipse cx="205" cy="238" rx="8.5" ry="8.5" fill="#1976d2"/>
  <ellipse cx="205" cy="250" rx="12" ry="6" fill="#bbdefb"/>
  
  <!-- Wave/Cloud Accent -->
  <path d="M60 290 Q110 250 220 285 Q320 320 460 275" stroke="#bbdefb" stroke-width="14" fill="none" opacity="0.7"/>
  <ellipse cx="110" cy="290" rx="18" ry="6" fill="#bbdefb" opacity="0.7"/>
  <ellipse cx="340" cy="285" rx="22" ry="8" fill="#bbdefb" opacity="0.5"/>
  <ellipse cx="430" cy="240" rx="15" ry="6" fill="#bbdefb" opacity="0.5"/>
</svg>
